<?xml version="1.0" encoding="UTF-8"?>
<svg id="Layer_2" data-name="Layer 2" xmlns="http://www.w3.org/2000/svg" viewBox="0 0 612.3 213.13">
  <defs>
    <style>
      .cls-1 {
        fill: #e5232c;
      }

      .cls-1, .cls-2 {
        stroke-width: 0px;
      }

      .cls-2 {
        fill: #fff;
      }
    </style>
  </defs>
  <g id="Layer_1-2" data-name="Layer 1">
    <path class="cls-1" d="m76.07,0c5.64,10.94,10.69,20.74,15.75,30.53,11.74,22.71,23.5,45.41,35.23,68.13,7.47,14.46,15.21,28.8,22.17,43.5,1.98,4.19,3.31,9.95,2.09,14.17-5.32,18.5-11.69,36.7-17.69,55.01-.1.3-.35.54-1.2,1.8-18.84-49.56-37.43-98.48-56.42-148.45-18.96,49.78-37.63,98.81-56.29,147.84-.38-.05-.77-.1-1.15-.14-3.23-9.74-6.5-19.48-9.69-29.23-2.27-6.92-3.93-14.1-6.79-20.76-3.87-9.01-1.97-16.88,2.44-25,6.19-11.41,11.83-23.12,17.85-34.62,4.98-9.52,10.29-18.88,15.24-28.42,4.87-9.38,9.34-18.97,14.21-28.36,7.77-14.96,15.72-29.83,24.24-45.98Z"/>
    <path class="cls-2" d="m291.83,117.76c4.9,0,9.54-.18,14.14.12,1.21.08,2.73,1.45,3.39,2.63,5.68,10,11.2,20.09,16.65,29.93v-32.43h16.1v62.44c-4.81,0-9.59.14-14.35-.1-1.15-.06-2.66-1.16-3.27-2.2-5.71-9.8-11.26-19.69-16.49-28.91v30.86h-16.17v-62.34Z"/>
    <path class="cls-2" d="m256.49,64.64v30.85h-15.64v-62.37c4.55,0,9.21-.47,13.67.23,1.76.28,3.46,2.99,4.59,4.94,5.11,8.8,10.01,17.72,15.34,27.24v-32.13h15.66v62.39c-4.79,0-9.71.12-14.62-.1-.94-.04-2.13-1.27-2.69-2.24-5.26-9.13-10.41-18.33-16.33-28.8Z"/>
    <path class="cls-2" d="m496.53,158.96c5.61,7.09,11.02,13.94,16.99,21.49-6.99,0-12.94.18-18.87-.13-1.46-.08-3.23-1.45-4.18-2.72-3.61-4.8-6.9-9.84-10.41-14.71-.7-.97-1.83-1.62-3.56-3.08v20.33h-16.86v-62c10.83,0,21.72-.38,32.55.22,3.38.19,6.94,2.58,9.85,4.73,9.35,6.91,8.73,30.57-5.51,35.87Zm-20.02-12.43c5.59-.07,11.38,1.64,14.36-4.25.91-1.81.66-5.32-.56-6.87-3.63-4.59-8.9-2.42-13.8-2.53v13.66Z"/>
    <path class="cls-2" d="m400.22,33.36v62.13h-15.65v-22.23h-17.05v22.28h-16.67v-62.13h16.47v23.22h17.05v-23.28h15.85Z"/>
    <path class="cls-2" d="m516.69,118h44.31v14.51h-27.44v9.02h24.31v14.98h-24.37v7.87h27.42v15.84h-44.24v-62.21Z"/>
    <path class="cls-2" d="m285.39,118.12v14.27h-27.49v9.2h25.37v14.8h-25.43v8.03h27.3v15.73h-43.3v-62.04h43.55Z"/>
    <path class="cls-2" d="m435.41,117.97c1.28-.09,2.07-.2,2.86-.2,4.47-.02,8.94,0,14.08,0,0,5.68,0,11.08,0,16.48,0,8.45.06,16.91-.01,25.36-.09,10.52-7.95,18.95-18.37,20.96-9.98,1.92-19.18.85-26.23-6.62-3.12-3.3-5.77-8.37-6.01-12.78-.75-14.2-.28-28.46-.28-43.05h16.94c0,12.93.14,25.8-.07,38.68-.08,5.02,1.55,7.96,6.7,9.13,5.32,1.21,10.33-2.09,10.36-7.56.08-13.26.03-26.52.03-40.39Z"/>
    <path class="cls-2" d="m195.22,95.61h-18.03c7.33-21,14.52-41.6,21.76-62.33h15.28c7.37,20.58,14.78,41.24,22.4,62.52-5.41,0-10.51.29-15.54-.2-1.31-.13-2.76-2.5-3.5-4.13-1.82-3.98-2.05-8.39-8.9-7.86-11.11.87-11.16.23-13.47,11.99Zm11.66-43.14c-1.59,6.06-2.88,10.99-4.23,16.14h8.1c-1.25-5.2-2.4-10.02-3.87-16.14Z"/>
    <path class="cls-2" d="m565.57,171.01c3.51-4.63,6.32-8.33,9.04-11.92,10.49,8.54,17.96,8.9,21.83.46-3.98-1.37-7.76-2.95-11.69-3.95-7.87-2.01-15.22-4.8-17.57-13.51-3.85-14.28,2.9-23.73,18.06-25.3,9.8-1.01,18.85.51,25.16,10.32-3.13,2.36-6.35,5.01-9.85,7.21-.65.41-2.54-.84-3.68-1.59-3.52-2.28-7.16-4.18-11.3-1.97-1.38.74-2.89,2.37-3.11,3.78-.18,1.16,1.18,3.32,2.36,3.79,3.57,1.44,7.35,2.43,11.12,3.32,17.35,4.11,20.19,20.65,11.9,31.62-5.34,7.06-22.05,10.58-30.78,5.98-4.4-2.32-8.16-5.82-11.48-8.25Z"/>
    <path class="cls-2" d="m237.24,117.75c-7.3,20.31-14.45,40.29-21.74,60.22-.38,1.05-1.94,2.26-3.04,2.36-3.47.3-7,.34-10.46-.01-1.2-.12-2.87-1.45-3.3-2.61-7.28-19.76-14.4-39.59-21.76-59.96,5.31,0,10.23-.24,15.1.16,1.34.11,3.21,1.93,3.67,3.34,4.14,12.7,8.01,25.48,11.38,36.34,3.45-11.14,7.4-24.14,11.62-37.05.39-1.2,2.39-2.57,3.73-2.66,4.78-.32,9.6-.13,14.8-.13Z"/>
    <path class="cls-2" d="m312.63,48.98h-16.7v-15.58h49.3v15.47h-16.56v46.53h-16.04v-46.43Z"/>
    <path class="cls-2" d="m380.59,180.33h-16.86v-47.54h-15.96v-14.66h48.32v14.41h-15.5v47.78Z"/>
    <path class="cls-2" d="m432.65,95.45v-62.09h16.53v46.47h24.9v15.62h-41.43Z"/>
    <path class="cls-2" d="m479.72,33.23h15.31v46.49h25.95v15.84h-41.26v-62.34Z"/>
    <path class="cls-2" d="m408.77,33.35h15.37v62.06h-15.37v-62.06Z"/>
  </g>
</svg>
